REM DIRINDEX 1\2,1\4,1\3\5,1\3\6,1\3\7
REM DIRNAME cjc082,folder01,folder02,folder03,folder04,folder05,folder06
TITLE ""
FILE "CD3Track13.mp3" MP3
  TRACK 01 AUDIO
    TITLE "0:"
    INDEX 01 00:00:00
  TRACK 02 AUDIO
    TITLE "5:cjc082_2523"
    INDEX 01 00:00:31
  TRACK 03 AUDIO
    TITLE "0:"
    INDEX 01 00:01:32
  TRACK 04 AUDIO
    TITLE "6:cjc082_2524"
    INDEX 01 00:02:02
  TRACK 05 AUDIO
    TITLE "0:"
    INDEX 01 00:04:31
  TRACK 06 AUDIO
    TITLE "5:cjc082_2525"
    INDEX 01 00:05:05
  TRACK 07 AUDIO
    TITLE "0:"
    INDEX 01 00:06:43
  TRACK 08 AUDIO
    TITLE "6:cjc082_2526"
    INDEX 01 00:07:17
  TRACK 09 AUDIO
    TITLE "0:"
    INDEX 01 00:09:16
  TRACK 10 AUDIO
    TITLE "5:cjc082_2527"
    INDEX 01 00:09:67
  TRACK 11 AUDIO
    TITLE "0:"
    INDEX 01 00:11:07
  TRACK 12 AUDIO
    TITLE "6:cjc082_2528"
    INDEX 01 00:11:60
  TRACK 13 AUDIO
    TITLE "0:"
    INDEX 01 00:12:65
  TRACK 14 AUDIO
    TITLE "5:cjc082_2529"
    INDEX 01 00:13:41
  TRACK 15 AUDIO
    TITLE "0:"
    INDEX 01 00:14:64
  TRACK 16 AUDIO
    TITLE "6:cjc082_2530"
    INDEX 01 00:15:40
  TRACK 17 AUDIO
    TITLE "0:"
    INDEX 01 00:16:59
  TRACK 18 AUDIO
    TITLE "5:cjc082_2531"
    INDEX 01 00:17:35
  TRACK 19 AUDIO
    TITLE "0:"
    INDEX 01 00:18:46
  TRACK 20 AUDIO
    TITLE "6:cjc082_2532"
    INDEX 01 00:19:26
  TRACK 21 AUDIO
    TITLE "0:"
    INDEX 01 00:20:34
  TRACK 22 AUDIO
    TITLE "5:cjc082_2533"
    INDEX 01 00:21:11
  TRACK 23 AUDIO
    TITLE "0:"
    INDEX 01 00:22:19
  TRACK 24 AUDIO
    TITLE "6:cjc082_2534"
    INDEX 01 00:22:74
  TRACK 25 AUDIO
    TITLE "0:"
    INDEX 01 00:24:20
  TRACK 26 AUDIO
    TITLE "5:cjc082_2535"
    INDEX 01 00:24:69
  TRACK 27 AUDIO
    TITLE "0:"
    INDEX 01 00:26:01
  TRACK 28 AUDIO
    TITLE "6:cjc082_2536"
    INDEX 01 00:26:52
  TRACK 29 AUDIO
    TITLE "0:"
    INDEX 01 00:28:59
  TRACK 30 AUDIO
    TITLE "5:cjc082_2537"
    INDEX 01 00:29:34
  TRACK 31 AUDIO
    TITLE "0:"
    INDEX 01 00:30:40
  TRACK 32 AUDIO
    TITLE "6:cjc082_2538"
    INDEX 01 00:31:18
  TRACK 33 AUDIO
    TITLE "0:"
    INDEX 01 00:32:52
  TRACK 34 AUDIO
    TITLE "5:cjc082_2539"
    INDEX 01 00:33:21
  TRACK 35 AUDIO
    TITLE "0:"
    INDEX 01 00:34:22
  TRACK 36 AUDIO
    TITLE "6:cjc082_2540"
    INDEX 01 00:35:04
  TRACK 37 AUDIO
    TITLE "0:"
    INDEX 01 00:36:64
  TRACK 38 AUDIO
    TITLE "5:cjc082_2541"
    INDEX 01 00:37:42
  TRACK 39 AUDIO
    TITLE "0:"
    INDEX 01 00:38:61
  TRACK 40 AUDIO
    TITLE "6:cjc082_2542"
    INDEX 01 00:39:37
  TRACK 41 AUDIO
    TITLE "0:"
    INDEX 01 00:40:24
  TRACK 42 AUDIO
    TITLE "5:cjc082_2543"
    INDEX 01 00:41:02
  TRACK 43 AUDIO
    TITLE "0:"
    INDEX 01 00:42:31
  TRACK 44 AUDIO
    TITLE "6:cjc082_2544"
    INDEX 01 00:43:07
  TRACK 45 AUDIO
    TITLE "0:"
    INDEX 01 00:44:16
  TRACK 46 AUDIO
    TITLE "5:cjc082_2545"
    INDEX 01 00:44:65
  TRACK 47 AUDIO
    TITLE "0:"
    INDEX 01 00:46:11
  TRACK 48 AUDIO
    TITLE "6:cjc082_2546"
    INDEX 01 00:46:60
  TRACK 49 AUDIO
    TITLE "0:"
    INDEX 01 00:47:58
  TRACK 50 AUDIO
    TITLE "5:cjc082_2547"
    INDEX 01 00:48:38
  TRACK 51 AUDIO
    TITLE "0:"
    INDEX 01 00:50:44
  TRACK 52 AUDIO
    TITLE "6:cjc082_2548"
    INDEX 01 00:51:22
  TRACK 53 AUDIO
    TITLE "0:"
    INDEX 01 00:53:13
  TRACK 54 AUDIO
    TITLE "5:cjc082_2549"
    INDEX 01 00:53:60
  TRACK 55 AUDIO
    TITLE "0:"
    INDEX 01 00:54:64
  TRACK 56 AUDIO
    TITLE "6:cjc082_2550"
    INDEX 01 00:55:40
  TRACK 57 AUDIO
    TITLE "0:"
    INDEX 01 00:56:53
  TRACK 58 AUDIO
    TITLE "5:cjc082_2551"
    INDEX 01 00:57:29
  TRACK 59 AUDIO
    TITLE "0:"
    INDEX 01 00:58:56
  TRACK 60 AUDIO
    TITLE "6:cjc082_2552"
    INDEX 01 00:59:30
  TRACK 61 AUDIO
    TITLE "0:"
    INDEX 01 01:01:34
  TRACK 62 AUDIO
    TITLE "7:cjc082_2553"
    INDEX 01 01:03:02
  TRACK 63 AUDIO
    TITLE "0:"
    INDEX 01 01:13:10
